<?xml version="1.0" encoding="utf-8"?>
<!-- Generator: Adobe Illustrator 22.1.0, SVG Export Plug-In . SVG Version: 6.00 Build 0)  -->
<svg version="1.1" id="Layer_1" xmlns="http://www.w3.org/2000/svg" xmlns:xlink="http://www.w3.org/1999/xlink" x="0px" y="0px"
	 viewBox="0 0 512 512" style="enable-background:new 0 0 512 512;" xml:space="preserve" fill="#00cf30" width="25px" height="25px">
<g>
	<title>cashapp</title>
	<g>
		<path d="M473.3,96.2c-9.7-26.6-30.6-47.5-57.2-57.1c-24.5-7.9-46.9-7.9-92.2-7.9H187.7c-45,0-67.7,0-91.8,7.5
			C69.2,48.4,48.3,69.4,38.7,96C31,120.4,31,142.9,31,187.9v136.3c0,45.2,0,67.5,7.5,91.9c9.7,26.6,30.6,47.5,57.2,57.1
			c24.4,7.7,46.9,7.7,91.9,7.7H324c45.2,0,67.7,0,91.9-7.5c26.7-9.7,47.7-30.7,57.3-57.3c7.7-24.4,7.7-46.9,7.7-91.9V188.3
			C481,143.1,481,120.6,473.3,96.2L473.3,96.2z M357.7,183.1l-17.5,17.4c-3.5,3.2-8.9,3.3-12.5,0.1c-16.9-14.2-38.3-22.1-60.4-22.1
			c-18.2,0-36.4,6-36.4,22.7c0,16.8,19.5,22.5,42,30.9c39.4,13.2,72,29.7,72,68.3c0,42-32.6,70.9-85.8,74.1l-4.9,22.6
			c-0.9,4.2-4.6,7.3-8.9,7.3h-33.6l-1.7-0.1c-5-1.1-8.1-6.1-7.1-11.1l5.3-23.8c-20.2-5-38.8-15.2-54.1-29.4v-0.2
			c-3.5-3.5-3.5-9.2,0-12.7l18.7-18.2c3.6-3.3,9.1-3.3,12.6,0c17.1,16.1,39.9,25.1,63.6,24.8c24.4,0,40.7-10.3,40.7-26.7
			s-16.5-20.6-47.6-32.2c-33-11.8-64.3-28.5-64.3-67.5c0-45.3,37.6-67.5,82.3-69.5l4.7-23.1c0.9-4.2,4.7-7.3,9-7.2H307l1.9,0.2
			c4.8,1.1,8.1,5.8,7,10.7l-5,25.7c16.8,5.6,32.8,14.4,46.4,26l0.4,0.4C361.2,174.1,361.2,179.7,357.7,183.1L357.7,183.1z"/>
	</g>
</g>
</svg>
