<?xml version="1.0" encoding="UTF-8"?>
<svg width="21px" height="21px" viewBox="0 0 21 21" version="1.1" xmlns="http://www.w3.org/2000/svg" xmlns:xlink="http://www.w3.org/1999/xlink">
    <!-- Generator: Sketch 53 (72520) - https://sketchapp.com -->
    <title>GitHub</title>
    <desc>Created with Sketch.</desc>
    <g id="Page-1" stroke="none" stroke-width="1" fill="none" fill-rule="evenodd">
        <g id="GitHub" fill="#C8E3FF" fill-rule="nonzero">
            <path d="M10.5,0 C4.69875,0 0,4.69875 0,10.5 C0,15.14625 3.005625,19.07063 7.179375,20.46187 C7.704375,20.55375 7.90125,20.23875 7.90125,19.96312 C7.90125,19.71375 7.888125,18.88687 7.888125,18.0075 C5.25,18.49312 4.5675,17.36438 4.3575,16.77375 C4.239375,16.47187 3.7275,15.54 3.28125,15.29063 C2.91375,15.09375 2.38875,14.60812 3.268125,14.595 C4.095,14.58188 4.685625,15.35625 4.8825,15.67125 C5.8275,17.25938 7.336875,16.81312 7.940625,16.5375 C8.0325,15.855 8.308125,15.39563 8.61,15.13313 C6.27375,14.87063 3.8325,13.965 3.8325,9.94875 C3.8325,8.80687 4.239375,7.86188 4.90875,7.12687 C4.80375,6.86438 4.43625,5.78813 5.01375,4.34437 C5.01375,4.34437 5.893125,4.06875 7.90125,5.42062 C8.74125,5.18438 9.63375,5.06625 10.52625,5.06625 C11.41875,5.06625 12.31125,5.18438 13.15125,5.42062 C15.159375,4.05562 16.03875,4.34437 16.03875,4.34437 C16.61625,5.78813 16.24875,6.86438 16.14375,7.12687 C16.813125,7.86188 17.22,8.79375 17.22,9.94875 C17.22,13.97813 14.765625,14.87063 12.429375,15.13313 C12.81,15.46125 13.138125,16.09125 13.138125,17.07562 C13.138125,18.48 13.125,19.60875 13.125,19.96312 C13.125,20.23875 13.321875,20.56687 13.846875,20.46187 C17.994375,19.07063 21,15.13313 21,10.5 C21,4.69875 16.30125,0 10.5,0 Z"></path>
        </g>
    </g>
</svg>