<?xml version="1.0" encoding="UTF-8"?>
<svg width="21px" height="21px" viewBox="0 0 21 21" version="1.1" xmlns="http://www.w3.org/2000/svg" xmlns:xlink="http://www.w3.org/1999/xlink">
    <!-- Generator: Sketch 52.5 (67469) - http://www.bohemiancoding.com/sketch -->
    <title>GitHub</title>
    <desc>Created with Sketch.</desc>
    <g id="Page-1" stroke="none" stroke-width="1" fill="none" fill-rule="evenodd">
        <g id="Mobile-Copy-2" transform="translate(-52.000000, -1569.000000)" fill="#24292E">
            <path d="M62.5,1569 C56.69875,1569 52,1573.69875 52,1579.5 C52,1584.14625 55.005625,1588.07063 59.179375,1589.46187 C59.704375,1589.55375 59.90125,1589.23875 59.90125,1588.96312 C59.90125,1588.71375 59.888125,1587.88687 59.888125,1587.0075 C57.25,1587.49312 56.5675,1586.36438 56.3575,1585.77375 C56.239375,1585.47187 55.7275,1584.54 55.28125,1584.29063 C54.91375,1584.09375 54.38875,1583.60812 55.268125,1583.595 C56.095,1583.58188 56.685625,1584.35625 56.8825,1584.67125 C57.8275,1586.25938 59.336875,1585.81312 59.940625,1585.5375 C60.0325,1584.855 60.308125,1584.39563 60.61,1584.13313 C58.27375,1583.87063 55.8325,1582.965 55.8325,1578.94875 C55.8325,1577.80687 56.239375,1576.86188 56.90875,1576.12687 C56.80375,1575.86438 56.43625,1574.78813 57.01375,1573.34437 C57.01375,1573.34437 57.893125,1573.06875 59.90125,1574.42062 C60.74125,1574.18438 61.63375,1574.06625 62.52625,1574.06625 C63.41875,1574.06625 64.31125,1574.18438 65.15125,1574.42062 C67.159375,1573.05562 68.03875,1573.34437 68.03875,1573.34437 C68.61625,1574.78813 68.24875,1575.86438 68.14375,1576.12687 C68.813125,1576.86188 69.22,1577.79375 69.22,1578.94875 C69.22,1582.97813 66.765625,1583.87063 64.429375,1584.13313 C64.81,1584.46125 65.138125,1585.09125 65.138125,1586.07562 C65.138125,1587.48 65.125,1588.60875 65.125,1588.96312 C65.125,1589.23875 65.321875,1589.56687 65.846875,1589.46187 C69.994375,1588.07063 73,1584.13313 73,1579.5 C73,1573.69875 68.30125,1569 62.5,1569 Z" id="GitHub"></path>
        </g>
    </g>
</svg>