<?xml version="1.0" encoding="UTF-8"?>
<svg width="21px" height="21px" viewBox="0 0 21 21" version="1.1" xmlns="http://www.w3.org/2000/svg" xmlns:xlink="http://www.w3.org/1999/xlink">
    <!-- Generator: Sketch 52.5 (67469) - http://www.bohemiancoding.com/sketch -->
    <title>LinkedIn</title>
    <desc>Created with Sketch.</desc>
    <g id="Page-1" stroke="none" stroke-width="1" fill="none" fill-rule="evenodd">
        <g id="Mobile-Copy-2" transform="translate(-35.000000, -1226.000000)" fill="#0077B5">
            <g id="Group-3-Copy-3" transform="translate(25.000000, 1217.000000)">
                <path d="M14.7677814,29.0726542 L14.7677814,15.5289729 L10.2661125,15.5289729 L10.2661125,29.0726542 L14.7677814,29.0726542 Z M12.5169269,13.679812 C14.0867499,13.679812 15.0638315,12.6398092 15.0638315,11.3401064 C15.0345752,10.0111472 14.0867499,9 12.5467042,9 C11.0068188,9 10,10.0111472 10,11.3401064 C10,12.6398092 10.9768812,13.679812 12.4875904,13.679812 L12.5169269,13.679812 Z M17.2586982,29.0726542 L21.760327,29.0726542 L21.760327,21.5092893 C21.760327,21.1045098 21.7895834,20.7001311 21.9084523,20.4107739 C22.233879,19.6020165 22.9745853,18.7644035 24.2181802,18.7644035 C25.847117,18.7644035 26.4987318,20.0063952 26.4987318,21.8271013 L26.4987318,29.0726542 L31,29.0726542 L31,21.3068996 C31,17.1468886 28.7791232,15.2111609 25.8173798,15.2111609 C23.3888631,15.2111609 22.3227301,16.5685749 21.7303894,17.4931554 L21.7604473,17.4931554 L21.7604473,15.5289729 L17.2588184,15.5289729 C17.3178922,16.7998202 17.2586982,29.0726542 17.2586982,29.0726542 Z" id="LinkedIn"></path>
            </g>
        </g>
    </g>
</svg>