<?xml version="1.0" encoding="UTF-8"?>
<svg width="21px" height="17px" viewBox="0 0 21 17" version="1.1" xmlns="http://www.w3.org/2000/svg" xmlns:xlink="http://www.w3.org/1999/xlink">
    <!-- Generator: Sketch 52.5 (67469) - http://www.bohemiancoding.com/sketch -->
    <title>Group 5</title>
    <desc>Created with Sketch.</desc>
    <g id="Page-1" stroke="none" stroke-width="1" fill="none" fill-rule="evenodd">
        <g id="Mobile-Copy-2" transform="translate(-64.000000, -1216.000000)" fill="#007AFF" fill-rule="nonzero">
            <g id="Group-5" transform="translate(64.000000, 1216.000000)">
                <path d="M1.72039252,2.89693699 L10.5,8.57785948 L19.2796075,2.89693699 C19.1719219,2.2200587 18.5855676,1.7027027 17.8783784,1.7027027 L3.12162162,1.7027027 C2.41443239,1.7027027 1.82807812,2.2200587 1.72039252,2.89693699 Z M0,3.12162162 C-2.52050633e-16,1.39759761 1.39759761,3.4656962e-16 3.12162162,0 L17.8783784,0 C19.6024024,-3.4656962e-16 21,1.39759761 21,3.12162162 L21,13.5648649 C21,15.2888889 19.6024024,16.6864865 17.8783784,16.6864865 L3.12162162,16.6864865 C1.39759761,16.6864865 2.52050633e-16,15.2888889 0,13.5648649 L0,3.12162162 Z M19.2972973,4.91355546 L10.9624977,10.3066611 C10.6810557,10.4887706 10.3189443,10.4887706 10.0375023,10.3066611 L1.7027027,4.91355546 L1.7027027,13.5648649 C1.7027027,14.3485121 2.33797434,14.9837838 3.12162162,14.9837838 L17.8783784,14.9837838 C18.6620257,14.9837838 19.2972973,14.3485121 19.2972973,13.5648649 L19.2972973,4.91355546 Z" id="Shape"></path>
            </g>
        </g>
    </g>
</svg>