<?xml version="1.0" encoding="UTF-8"?>
<svg width="1000px" height="400px" viewBox="0 0 1000 400" version="1.1" xmlns="http://www.w3.org/2000/svg" xmlns:xlink="http://www.w3.org/1999/xlink">
    <!-- Generator: Sketch 54.1 (76490) - https://sketchapp.com -->
    <title>Custom Preset</title>
    <desc>Created with Sketch.</desc>
    <g id="Custom-Preset" stroke="none" stroke-width="1" fill="none" fill-rule="evenodd">
        <path d="M142.91,138.82 C161.31,138.82 174.19,142.27 181.32,149.17 C188.45,155.84 192.13,168.72 192.13,187.81 L191.9,265.32 C191.9,267.85 190.75,269 188.45,269 L161.31,269 C159.01,269 157.86,267.85 157.86,265.32 L157.86,202.99 C156.71,169.18 155.79,169.41 136.01,168.49 C129.34,168.49 123.13,168.95 117.38,169.87 C119.45,175.85 120.37,183.9 120.37,194.25 L120.14,265.32 C120.14,267.85 118.99,269 116.92,269 L89.55,269 C87.48,269 86.33,267.85 86.33,265.32 L86.33,195.17 C86.33,182.06 85.64,175.85 81.73,172.4 C77.82,168.72 74.37,168.49 64.25,168.49 L48.61,168.49 L48.61,265.32 C48.61,267.85 47.46,269 45.16,269 L18.02,269 C15.72,269 14.57,267.85 14.57,265.32 L14.57,146.41 C14.57,144.57 15.49,143.42 17.56,142.96 C29.52,140.43 44.24,139.05 61.72,139.05 C78.97,139.05 92.77,141.58 102.89,146.41 C116,141.35 129.34,138.82 142.91,138.82 Z M266.42,139.05 C287.81,139.05 302.53,142.27 310.35,148.71 C318.17,155.15 322.08,165.04 322.08,178.61 L322.08,258.19 C322.08,261.87 320.47,264.17 317.02,265.32 C302.99,268.54 285.51,270.15 264.81,270.15 C245.49,270.15 235.83,269.23 225.71,263.94 C215.82,258.42 211.91,248.07 211.68,230.36 C211.91,215.64 215.59,205.75 222.95,200.46 C230.54,195.17 242.5,192.64 258.83,192.64 L288.04,192.64 L288.04,184.36 C288.04,173.78 280.91,168.49 266.42,168.49 L224.79,168.49 C222.26,168.49 221.57,167.8 221.57,165.04 L221.57,146.18 C221.57,143.65 222.26,143.19 224.79,142.5 C236.52,140.2 250.32,139.05 266.42,139.05 Z M288.04,240.25 L288.04,214.72 L261.59,214.72 C249.63,214.72 245.49,218.4 245.49,228.52 C245.49,239.33 250.32,242.55 265.04,242.55 C274.93,242.55 282.52,241.86 288.04,240.25 Z M358.19,111.68 L385.33,104.55 C387.86,103.86 389.01,105.01 389.01,108 L389.01,140.89 L410.17,140.89 C412.7,140.89 414.08,142.04 414.08,144.34 L414.08,162.74 C414.08,165.04 412.7,166.19 410.17,166.19 L389.01,166.19 L389.01,228.98 C389.01,238.41 392.23,240.71 402.58,240.71 L412.01,240.71 C414.54,240.71 415.92,241.86 415.92,244.16 L415.92,263.71 C415.92,266.24 414.77,267.62 412.24,268.08 C405.34,269.46 398.9,270.15 392.69,270.15 C382.8,270.15 378.66,270.15 371.07,268.08 C360.26,265.09 355.89,257.96 354.97,240.48 L354.97,166.19 L341.4,166.19 C338.87,166.19 337.72,165.04 337.72,162.74 L337.72,144.34 C337.72,142.04 338.87,140.89 341.4,140.89 L354.97,140.89 L354.97,115.36 C354.97,113.29 356.12,112.14 358.19,111.68 Z M445.59,111.68 L472.73,104.55 C475.26,103.86 476.41,105.01 476.41,108 L476.41,140.89 L497.57,140.89 C500.1,140.89 501.48,142.04 501.48,144.34 L501.48,162.74 C501.48,165.04 500.1,166.19 497.57,166.19 L476.41,166.19 L476.41,228.98 C476.41,238.41 479.63,240.71 489.98,240.71 L499.41,240.71 C501.94,240.71 503.32,241.86 503.32,244.16 L503.32,263.71 C503.32,266.24 502.17,267.62 499.64,268.08 C492.74,269.46 486.3,270.15 480.09,270.15 C470.2,270.15 466.06,270.15 458.47,268.08 C447.66,265.09 443.29,257.96 442.37,240.48 L442.37,166.19 L428.8,166.19 C426.27,166.19 425.12,165.04 425.12,162.74 L425.12,144.34 C425.12,142.04 426.27,140.89 428.8,140.89 L442.37,140.89 L442.37,115.36 C442.37,113.29 443.52,112.14 445.59,111.68 Z M571.63,89.83 C580.14,89.83 588.42,90.52 596.47,92.13 C599,92.59 600.15,93.97 600.15,96.5 L600.15,115.59 C600.15,118.12 598.77,119.27 596.24,119.27 L578.07,119.27 C568.64,119.27 565.19,120.88 565.19,128.24 L565.19,140.43 L593.25,140.43 C595.55,140.43 596.47,141.81 596.01,144.34 L592.56,163.66 C592.1,165.73 590.72,166.88 588.65,166.88 L565.19,166.88 L565.19,265.32 C565.19,267.85 564.04,269 561.74,269 L534.6,269 C532.3,269 531.15,267.85 531.15,265.32 L531.15,166.88 L516.2,166.88 C513.67,166.88 512.29,165.73 512.29,163.43 L512.29,143.88 C512.29,141.58 513.67,140.43 516.2,140.43 L531.15,140.43 L531.15,122.26 C531.15,108.46 535.52,99.49 543.8,95.12 C552.08,90.75 559.67,89.83 571.63,89.83 Z M653.51,139.05 C666.62,139.05 676.74,139.97 684.1,141.58 C686.63,142.27 687.78,143.65 687.78,146.18 L687.78,165.04 C687.78,167.34 686.4,168.49 683.87,168.49 L662.25,168.49 C649.6,168.49 646.15,170.79 646.15,180.22 L646.15,265.32 C646.15,267.85 645,269 642.7,269 L615.33,269 C613.03,269 611.88,267.85 611.88,265.32 L611.88,171.48 C611.88,160.44 615.56,152.16 620.39,147.56 C628.9,140.43 640.63,139.05 653.51,139.05 Z M721.82,85.92 C734.47,85.92 741.6,92.59 741.6,104.32 C741.6,116.05 734.47,122.95 721.82,122.95 C708.94,122.95 701.58,116.05 701.58,104.32 C701.58,92.59 708.94,85.92 721.82,85.92 Z M708.02,140.2 L735.16,140.2 C737.46,140.2 738.61,141.35 738.61,143.65 L738.61,265.32 C738.61,267.85 737.46,269 735.16,269 L708.02,269 C705.72,269 704.57,267.85 704.57,265.32 L704.57,143.65 C704.57,141.35 705.72,140.2 708.02,140.2 Z M813.82,139.05 C835.21,139.05 849.93,142.27 857.75,148.71 C865.57,155.15 869.48,165.04 869.48,178.61 L869.48,258.19 C869.48,261.87 867.87,264.17 864.42,265.32 C850.39,268.54 832.91,270.15 812.21,270.15 C792.89,270.15 783.23,269.23 773.11,263.94 C763.22,258.42 759.31,248.07 759.08,230.36 C759.31,215.64 762.99,205.75 770.35,200.46 C777.94,195.17 789.9,192.64 806.23,192.64 L835.44,192.64 L835.44,184.36 C835.44,173.78 828.31,168.49 813.82,168.49 L772.19,168.49 C769.66,168.49 768.97,167.8 768.97,165.04 L768.97,146.18 C768.97,143.65 769.66,143.19 772.19,142.5 C783.92,140.2 797.72,139.05 813.82,139.05 Z M835.44,240.25 L835.44,214.72 L808.99,214.72 C797.03,214.72 792.89,218.4 792.89,228.52 C792.89,239.33 797.72,242.55 812.44,242.55 C822.33,242.55 829.92,241.86 835.44,240.25 Z M945.38,139.05 C958.03,139.05 970.22,139.97 981.72,142.04 C984.25,142.73 985.4,143.88 985.4,145.72 L985.4,163.2 C985.4,165.73 984.02,166.88 981.49,166.88 L940.09,166.88 C931.12,166.88 926.52,169.64 926.52,175.16 L926.52,177.46 C926.52,181.83 930.2,185.51 937.56,188.04 L967,198.39 C985.4,204.83 991.15,215.64 991.15,232.89 L991.15,236.57 C991.15,261.64 974.13,270.15 942.16,270.15 C925.14,270.15 909.27,269.46 894.55,267.85 C892.02,267.85 890.64,266.7 890.64,264.4 L890.64,245.77 C890.64,243.47 892.02,242.32 894.55,242.32 L941.7,242.32 C953.89,242.32 957.57,240.71 957.57,234.5 L957.57,232.43 C957.57,227.83 954.81,225.07 944.92,221.62 L916.63,211.5 C900.99,206.21 893.17,194.48 893.17,176.54 L893.17,172.17 C893.17,148.48 910.65,139.05 945.38,139.05 Z" id="mattfrias" fill="#2CB1BE" fill-rule="nonzero"></path>
        <ellipse id="Oval" fill="#2CB1BE" cx="268" cy="230.5" rx="29" ry="23.5"></ellipse>
        <ellipse id="Oval" fill="#2CB1BE" cx="816" cy="230" rx="29" ry="23"></ellipse>
    </g>
</svg>