<?xml version="1.0" encoding="UTF-8"?>
<svg width="22px" height="19px" viewBox="0 0 22 19" version="1.1" xmlns="http://www.w3.org/2000/svg" xmlns:xlink="http://www.w3.org/1999/xlink">
    <!-- Generator: Sketch 52.5 (67469) - http://www.bohemiancoding.com/sketch -->
    <title>path4245-1</title>
    <desc>Created with Sketch.</desc>
    <g id="Page-1" stroke="none" stroke-width="1" fill="none" fill-rule="evenodd">
        <g id="Mobile-Copy-2" transform="translate(-109.000000, -1492.000000)" fill="#FF4500" fill-rule="nonzero">
            <g id="Group-3-Copy-5" transform="translate(99.000000, 1481.000000)">
                <path d="M23.7493881,29.470508 C24.8214889,29.2190539 25.5977425,28.9494824 26.3600656,28.5638943 C28.7326656,27.3638127 30.2180514,25.3715489 30.2180514,23.3893972 C30.2180514,22.7901695 30.2309275,22.7622613 30.7303647,22.2788079 C31.1267666,21.8950925 31.281878,21.6471574 31.4159354,21.1829736 C31.5756131,20.6300694 31.5761278,20.5381273 31.422507,20.0096895 C30.9915784,18.5273471 29.4501967,17.8595276 28.0707082,18.5574857 L27.5375367,18.8272456 L26.9880821,18.4891642 C25.9314112,17.8389865 24.0520367,17.2022052 22.8402467,17.083766 C22.5082146,17.0513141 22.089626,17.0026887 21.9100429,16.9757091 L21.5835334,16.9266558 L21.7237475,16.2247746 C21.8008651,15.8387406 21.9615579,15.0768697 22.0808443,14.5317286 C22.2001289,13.9865873 22.3495912,13.2471253 22.4129815,12.8884798 C22.5046029,12.3700964 22.567108,12.2363968 22.7178313,12.2363968 C22.8221098,12.2363968 23.5680098,12.3772468 24.3753868,12.5493967 C25.1827656,12.7215466 25.859957,12.8623964 25.8802559,12.8623964 C25.9005567,12.8623964 25.9460932,13.0166015 25.9814517,13.2050745 C26.0709075,13.6819132 26.3032043,13.9780089 26.7777923,14.2201257 C27.9167882,14.8011975 29.198796,14.0269828 29.198796,12.7580632 C29.198796,11.1859335 27.2603357,10.4993385 26.275201,11.7225376 C26.0848094,11.9589378 25.9892895,12.0022678 25.8057011,11.9355118 C25.6789366,11.8894179 24.808034,11.6946948 23.8703574,11.5027934 C22.6284912,11.248637 22.1190843,11.183157 21.9945994,11.2616807 C21.8045373,11.3815686 21.8290785,11.2929878 21.3054438,13.7492292 C20.6826169,16.6707711 20.6449931,16.8362343 20.5913107,16.8899159 C20.5629352,16.9182924 20.1125428,16.9857052 19.5904397,17.0397207 C18.0064576,17.203598 16.2657335,17.7628744 15.0921924,18.4849616 L14.5495679,18.8188416 L14.0166624,18.5532843 C12.6255919,17.8600837 11.0816239,18.5281848 10.6509389,20.0096895 C10.4973181,20.5381273 10.4978333,20.6300694 10.6575123,21.1829736 C10.7915686,21.6471574 10.9466811,21.8950925 11.3430819,22.2788079 C11.8425222,22.7622613 11.8553958,22.7901695 11.8553958,23.3893972 C11.8553958,26.1274999 14.6695066,28.7405247 18.4283915,29.4927144 C19.6736677,29.7419067 19.7581619,29.7482629 21.3497229,29.7125019 C22.3898722,29.6891326 23.1396443,29.6135199 23.7493881,29.470508 Z M19.3613932,27.4820465 C18.4981201,27.2876906 17.521788,26.8540656 17.2357114,26.537955 C17.0075961,26.28589 17.1051269,25.9040508 17.397624,25.9040508 C17.5115685,25.9040508 17.7783664,26.0225339 17.9905093,26.1673445 C19.4229918,27.1451756 22.6555274,27.1416316 24.0927825,26.160666 C24.555725,25.8446908 24.9345705,25.8534137 24.9812699,26.18112 C25.0032448,26.3353374 24.9048451,26.4887481 24.6681548,26.6692804 C23.51894,27.5458285 21.2131972,27.8989735 19.3613932,27.482059 L19.3613932,27.4820465 Z M16.7285431,23.6052097 C16.1910548,23.3135796 15.9252669,22.8483593 15.9247827,22.1983599 C15.9242662,21.453318 16.270322,20.9711984 16.973332,20.737696 C17.473662,20.5715126 17.5334065,20.5715179 17.9687944,20.737794 C19.140473,21.1852621 19.3802461,22.6470195 18.4101014,23.4281715 C17.9044478,23.8353194 17.2748207,23.901609 16.7285431,23.6052097 Z M24.0102206,23.6533124 C23.5121244,23.3942573 23.2336807,23.0793168 23.115844,22.6417034 C22.897849,21.8321368 23.3082423,21.0419475 24.1046506,20.737794 C24.5400387,20.5715179 24.5997833,20.5715126 25.1001146,20.737696 C25.8031241,20.9711984 26.1492184,21.453318 26.1486645,22.1983599 C26.1481302,22.8601882 25.8770912,23.3216508 25.3226376,23.6045115 C24.8239074,23.8589452 24.4335091,23.8734615 24.0102206,23.6533124 Z" id="path4245-1"></path>
            </g>
        </g>
    </g>
</svg>