<?xml version="1.0" encoding="UTF-8"?>
<svg width="21px" height="17px" viewBox="0 0 21 17" version="1.1" xmlns="http://www.w3.org/2000/svg" xmlns:xlink="http://www.w3.org/1999/xlink">
    <!-- Generator: Sketch 52.5 (67469) - http://www.bohemiancoding.com/sketch -->
    <title>Twitter</title>
    <desc>Created with Sketch.</desc>
    <g id="Page-1" stroke="none" stroke-width="1" fill="none" fill-rule="evenodd">
        <g id="Mobile-Copy-2" transform="translate(-37.000000, -1173.000000)" fill="#1DA1F2">
            <g id="Group-3" transform="translate(25.000000, 1161.000000)">
                <path d="M29.68389,13.3933725 C28.89807,12.5544291 27.77835,12.0199089 26.53914,12.0005401 C24.15984,11.9633518 22.230675,13.8512868 22.230675,16.2171824 C22.230675,16.55296 22.26879,16.8803921 22.34229,17.1947182 C18.76158,16.9766219 15.586905,15.2257374 13.46202,12.5864857 C13.09116,13.2189101 12.87864,13.958076 12.87864,14.7498839 C12.87864,16.2488436 13.63926,17.5791596 14.79531,18.3646334 C14.08908,18.3353557 13.424745,18.134599 12.843885,17.8052543 C12.843465,17.8232557 12.843465,17.8412615 12.843465,17.8595832 C12.843465,19.9528862 14.328585,21.7090051 16.29954,22.118091 C15.938025,22.2142845 15.5574,22.2646264 15.16449,22.2621799 C14.88687,22.2604512 14.616915,22.2315418 14.35389,22.179634 C14.902095,23.8963549 16.49316,25.1490628 18.37854,25.1904833 C16.904025,26.3398439 15.046365,27.0243674 13.02774,27.0204572 C12.67998,27.0197836 12.33705,26.9986824 12,26.9580855 C13.906695,28.1865776 16.171335,28.9018392 18.604395,28.9024386 C26.52906,28.9043909 30.862725,22.4285063 30.862725,16.8114667 C30.862725,16.6271775 30.85842,16.4438742 30.85023,16.2614559 C31.692015,15.6724617 32.422395,14.9339939 33,14.0907306 C32.22741,14.4177629 31.396965,14.6349631 30.52557,14.726072 C31.415025,14.2120385 32.09826,13.3893452 32.419875,12.4027879 C31.58733,12.8768797 30.665325,13.2168661 29.68389,13.3933725 Z" id="Twitter"></path>
            </g>
        </g>
    </g>
</svg>